<?xml version="1.0" encoding="utf-8"?>
<!-- Generator: Adobe Illustrator 22.1.0, SVG Export Plug-In . SVG Version: 6.00 Build 0)  -->
<svg version="1.1" id="レイヤー_1" xmlns="http://www.w3.org/2000/svg" xmlns:xlink="http://www.w3.org/1999/xlink" x="0px"
	 y="0px" viewBox="0 0 36 36" style="enable-background:new 0 0 36 36;" xml:space="preserve">
<style type="text/css">
	.st0{fill:#FFFFFF;}
	.st1{display:none;fill:#FFFFFF;}
</style>
<path class="st0" d="M18,0C8.1,0,0,8.1,0,18s8.1,18,18,18s18-8.1,18-18S27.9,0,18,0z M24,11.3h-1.9c-1.5,0-1.8,0.7-1.8,1.7v2.2h3.5
	l-0.5,3.6h-3.1V28h-3.7v-9.2h-3.1v-3.6h3.1v-2.6c0-3.1,1.9-4.7,4.6-4.7c0.9,0,1.8,0,2.8,0.1V11.3z"/>
<path class="st1" d="M16.6,12.6v2.6h-3.1v3.6h3.1V28h3.7v-9.2h3.1l0.5-3.6h-3.5V13c0-1,0.3-1.7,1.8-1.7H24V8
	c-0.9-0.1-1.8-0.1-2.8-0.1C18.5,7.9,16.6,9.5,16.6,12.6z"/>
</svg>
