<?xml version="1.0" encoding="utf-8"?>
<!-- Generator: Adobe Illustrator 22.1.0, SVG Export Plug-In . SVG Version: 6.00 Build 0)  -->
<svg version="1.1" id="レイヤー_1" xmlns="http://www.w3.org/2000/svg" xmlns:xlink="http://www.w3.org/1999/xlink" x="0px"
	 y="0px" viewBox="0 0 36 36" style="enable-background:new 0 0 36 36;" xml:space="preserve">
<style type="text/css">
	.st0{fill:#FFFFFF;}
	.st1{display:none;fill:#FFFFFF;}
</style>
<path class="st0" d="M18,0C8.1,0,0,8.1,0,18s8.1,18,18,18s18-8.1,18-18S27.9,0,18,0z M27.8,13.6c0,0.2,0,0.4,0,0.6
	c0,2.5-0.7,4.9-2,6.9c-3.8,6-11.7,7.7-17.7,3.9c0.4,0,0.7,0,1.1,0c2,0,4-0.7,5.6-1.9c-1.9,0-3.6-1.3-4.2-3.1
	c0.3,0.1,0.6,0.1,0.8,0.1c0.4,0,0.8,0,1.2-0.2C10.5,19.5,9,17.6,9,15.5v-0.1c0.6,0.3,1.3,0.5,2,0.6c-1.3-0.8-2-2.2-2-3.8
	c0-0.8,0.2-1.6,0.7-2.3c2.3,2.8,5.7,4.5,9.3,4.7c-0.1-0.3-0.1-0.7-0.1-1c0-1.2,0.5-2.4,1.4-3.3c1.8-1.7,4.7-1.6,6.4,0.2
	c1-0.2,2-0.6,2.9-1.1c-0.3,1-1.1,1.9-2,2.5c0.9-0.1,1.8-0.3,2.6-0.7C29.5,12.2,28.7,13,27.8,13.6z"/>
<path class="st1" d="M29.5,9.5c-0.9,0.5-1.9,0.9-2.9,1.1c-1.7-1.8-4.6-1.9-6.4-0.2c-0.9,0.8-1.4,2-1.4,3.3c0,0.3,0,0.7,0.1,1
	c-3.6-0.2-7-1.9-9.3-4.7C9.2,10.7,9,11.5,9,12.3c0,1.5,0.7,2.9,2,3.8c-0.7,0-1.4-0.2-2-0.6v0.1c0,2.1,1.5,4,3.6,4.4
	c-0.4,0.1-0.8,0.2-1.2,0.2c-0.3,0-0.6,0-0.8-0.1c0.6,1.8,2.3,3.1,4.2,3.1c-1.6,1.2-3.6,1.9-5.6,1.9c-0.4,0-0.7,0-1.1,0
	c6,3.8,13.9,2.1,17.7-3.9c1.3-2.1,2-4.5,2-6.9c0-0.2,0-0.4,0-0.6c0.9-0.6,1.6-1.4,2.2-2.3c-0.8,0.4-1.7,0.6-2.6,0.7
	C28.4,11.4,29.1,10.5,29.5,9.5z"/>
</svg>
