<?xml version="1.0" encoding="utf-8"?>
<!-- Generator: Adobe Illustrator 22.1.0, SVG Export Plug-In . SVG Version: 6.00 Build 0)  -->
<svg version="1.1" id="youtube" xmlns="http://www.w3.org/2000/svg" xmlns:xlink="http://www.w3.org/1999/xlink" x="0px" y="0px"
	 viewBox="0 0 36 36" style="enable-background:new 0 0 36 36;" xml:space="preserve">
<style type="text/css">
	.st0{display:none;fill:#FFFFFF;}
	.st1{fill:#FFFFFF;}
	.st2{fill-opacity:0.25;}
</style>
<path class="st0" d="M28.3,11c-0.6-0.6-1.4-1-2.3-1c-3.2-0.2-8-0.2-8-0.2h0c0,0-4.8,0-8,0.2c-0.9,0-1.7,0.4-2.3,1
	c-0.5,0.7-0.8,1.5-0.9,2.3c-0.1,1.2-0.2,2.5-0.2,3.8v1.8c0,1.3,0.1,2.5,0.2,3.8c0.1,0.8,0.4,1.6,0.9,2.3c0.7,0.6,1.6,1,2.5,1
	c1.8,0.2,7.8,0.2,7.8,0.2s4.8,0,8-0.2c0.9,0,1.7-0.4,2.3-1c0.5-0.7,0.8-1.5,0.9-2.3c0.1-1.2,0.2-2.5,0.2-3.8v-1.8
	c0-1.3-0.1-2.5-0.2-3.8C29.1,12.5,28.8,11.7,28.3,11z"/>
<path class="st1" d="M18,0C8.1,0,0,8.1,0,18s8.1,18,18,18s18-8.1,18-18S27.9,0,18,0z M29.5,18.9c0,1.3-0.1,2.5-0.2,3.8
	c-0.1,0.8-0.4,1.6-0.9,2.3c-0.6,0.6-1.4,1-2.3,1c-3.2,0.2-8,0.2-8,0.2s-6-0.1-7.8-0.2c-0.9,0-1.8-0.4-2.5-1
	c-0.5-0.7-0.8-1.5-0.9-2.3c-0.1-1.2-0.2-2.5-0.2-3.8v-1.8c0-1.3,0.1-2.5,0.2-3.8c0.1-0.8,0.4-1.6,0.9-2.3c0.6-0.6,1.4-1,2.3-1
	c3.2-0.2,8-0.2,8-0.2h0c0,0,4.8,0,8,0.2c0.9,0,1.7,0.4,2.3,1c0.5,0.7,0.8,1.5,0.9,2.3c0.1,1.2,0.2,2.5,0.2,3.8V18.9z"/>
<polygon class="st1" points="15.6,21.2 21.7,17.9 15.6,14.7 "/>
<polygon class="st2" points="21.3,18.3 22.1,17.9 15.4,14.3 "/>
</svg>
