<svg xmlns="http://www.w3.org/2000/svg" viewBox="0 0 492.52 120"><defs><style>.cls-1{fill:#73a5ff;}.cls-2{fill:#fff;}.cls-3{fill:#2864f0;}</style></defs><g id="レイヤー_2" data-name="レイヤー 2"><g id="レイヤー_7" data-name="レイヤー 7"><rect class="cls-1" x="3.36" y="14.81" width="41.28" height="51.61" rx="6.88" transform="translate(-7.31 5.33) rotate(-11)"/><circle class="cls-2" cx="15.46" cy="59.8" r="3.44"/><circle class="cls-2" cx="27.28" cy="57.5" r="3.44"/><circle class="cls-2" cx="39.1" cy="55.2" r="3.44"/><circle class="cls-2" cx="13.49" cy="49.67" r="3.44"/><circle class="cls-2" cx="11.52" cy="39.54" r="3.44"/><circle class="cls-2" cx="25.31" cy="47.37" r="3.44"/><circle class="cls-2" cx="23.34" cy="37.24" r="3.44"/><circle class="cls-2" cx="37.13" cy="45.07" r="3.44"/><circle class="cls-2" cx="35.16" cy="34.94" r="3.44"/><rect class="cls-2" x="5.4" y="20.27" width="30.96" height="8.6" rx="1.72" transform="translate(-4.31 4.44) rotate(-11)"/><path class="cls-3" d="M117.67,55.09a142.24,142.24,0,0,1-28.42-2.86A77.28,77.28,0,0,0,131,0L72.74,44.8c-3.25,2.51-4.11,1.65-7.2,1.65a18.62,18.62,0,0,0-12.9,5.19c-1.29,1.25-1.46,1.59-3.44,2.08l-4.07,1,7.74,1.69c6.18,1.36,7.58,2.37,11,6.78L107.62,120A64.3,64.3,0,0,0,92.27,73.34,41.66,41.66,0,0,0,105.81,71a20.23,20.23,0,0,1,8.94-1.5H138c.31-1.55-.28-2-2.56-2.33l-17.95-2.5c.8-.57,1.89-1.54,2.71-2.22a9.18,9.18,0,0,1,4.92-2.54,131,131,0,0,0,14-4.18c1.95-.68,1.64-1.4,2-2.61A133.82,133.82,0,0,1,117.67,55.09Z"/><path class="cls-2" d="M63.72,56.2a2.89,2.89,0,1,1,2.89-2.88A2.88,2.88,0,0,1,63.72,56.2Z"/><path class="cls-2" d="M91.87,69.82a38.34,38.34,0,0,1-26.31-10.4c6.18-1.89,14.11-2.14,24.53-1,9.57,1,17.35,2.58,26.3,2.6A38.33,38.33,0,0,1,91.87,69.82Z"/><path class="cls-3" d="M359.35,55.82c-2.73,10-11.32,17.06-18.52,17.06-7.69,0-9-5-9-8.2,7.46-1.42,18.85-4.55,18.85-13.37,0-4.05-2.52-7.85-9.41-7.85-9.83,0-16,8.73-17.62,16-3.44,7.67-10.55,13.42-17.19,13.42-7.69,0-9-5-9-8.2,7.46-1.42,18.85-4.55,18.85-13.37,0-4.05-2.52-7.85-9.41-7.85-9.82,0-16,8.72-17.62,16v0c-3.43,7.7-10.56,13.47-17.22,13.47-7.68,0-9-5-9-8.2C270.62,63.26,282,60.13,282,51.31c0-4.05-2.52-7.85-9.41-7.85-11,0-17.4,10.9-18,18.47a29.19,29.19,0,0,1-4.22.36c-5.19,0-4.56-3.95-3.74-8.14,1.17-6-2.07-10.69-8.36-10.69-7.2,0-12.51,7.11-15.47,14.15h0c1.67-8.6.23-13.87-10.12-13.87-4.73,0-10.13,1.48-15.95,3.77,0,0,2.11-10.86,2.11-10.86,2.61-13.41,6.12-16.23,10.51-16.23,3.47,0,5.78,2.07,8.58,5.7l1.51-7.8a19.67,19.67,0,0,0-10.29-2.82c-10.34,0-17.23,7.52-20.11,22.28l-2.7,13.95c-9.43,3.75-21.41,7.63-40.26,8.49l-.87,4.49c18.45-.72,30.6-4.22,40.12-7.82l-5.14,26.47c-2.53,13-5.92,16.24-10.46,16.24-4.22,0-6.76-3.35-8.59-5.7-.25,1.31-1.51,7.8-1.51,7.8a20.11,20.11,0,0,0,10.51,2.82c9.53,0,16.85-6.91,19.84-22.28l5.74-29.55c5.78-2.38,11.82-4.29,14.84-4.29,4.87,0,5.76,1.66,4.5,8.25l-4.11,21H220l1.85-9.38c1.4-7.21,6.36-17.57,12.74-17.57,3.21,0,3.91,2.45,3.31,5.53-1.56,8,3.19,10.07,8.8,10.07a53.33,53.33,0,0,0,7.89-.48c.34,4.86,4.24,12.77,14.94,12.77,8,0,14.87-5.12,19.55-11.7.8,4.87,4.87,11.7,14.81,11.7,8,0,14.86-5.11,19.54-11.67.81,4.86,4.88,11.67,14.8,11.67,11.24,0,20.94-9.89,24.71-22Zm-18.43-8c1.51,0,3.12,1,3.12,3.76,0,5.18-6.75,7.84-12,9C332.06,56.16,336.67,47.79,340.92,47.79Zm-34.34,0c1.51,0,3.12,1,3.12,3.76,0,5.18-6.75,7.84-12,9C297.72,56.16,302.33,47.79,306.58,47.79Zm-34.36,0c1.51,0,3.11,1,3.11,3.76,0,5.18-6.74,7.84-12,9C263.35,56.16,268,47.79,272.22,47.79Z"/><path class="cls-3" d="M395.8,49.48a62.9,62.9,0,0,1-10.27,6l-3.38-4.52A42.39,42.39,0,0,0,404.2,32h6.49c5.3,7.44,13,13.3,23.06,17.36l-3.49,4.8a62.21,62.21,0,0,1-9.87-5.47v4.06H395.8Zm9.36,13.59a120,120,0,0,1-5.47,10.77c7.39-.51,13.2-1,18.72-1.63l-.39-.46c-2.48-2.53-3.22-3.32-5.3-5.24l4.73-2.65a105.2,105.2,0,0,1,13.37,14l-5.08,3.55-.11-.16c-2.09-2.88-2.48-3.39-3.72-5-10.83,1.58-23.35,3-34.63,3.84l-1.75-5.53c2.65-.11,6-.28,8-.45a80.52,80.52,0,0,0,5.31-11.11H385.14v-5h45.68v5Zm14-15.17a52.58,52.58,0,0,1-11.73-11,42,42,0,0,1-9.64,11Z"/><path class="cls-3" d="M442.33,40.23h23.85V44.8H442.33Zm2.08,22.44H464.1V81.12h-5.19V79H449.6v2.59h-5.19Zm1.13-29.94H462.8v4.4H445.54Zm0,15.17H462.8v4.23H445.54Zm0,7.33H462.8v4.23H445.54Zm13.37,19.4V66.9H449.6v7.73Zm17.26-20.87H465.39V48.35h10.78V31.66h5.64V48.35h10.71v5.41H481.81V81.62h-5.64Z"/></g></g></svg>