<svg xmlns="http://www.w3.org/2000/svg" viewBox="0 0 604.95 120"><defs><style>.cls-1{fill:#73a5ff;}.cls-2{fill:#fff;}.cls-3{fill:#2864f0;}</style></defs><g id="レイヤー_2" data-name="レイヤー 2"><g id="レイヤー_7" data-name="レイヤー 7"><path class="cls-1" d="M25.47,7a5.22,5.22,0,1,0-10.24,2,5.22,5.22,0,1,0,2,10.24,5.22,5.22,0,1,0,10.24-2A5.22,5.22,0,1,0,25.47,7Z"/><circle class="cls-2" cx="21.34" cy="13.07" r="3.48"/><path class="cls-1" d="M41.79,18a5.22,5.22,0,0,0-10.25,2,5.22,5.22,0,0,0,2,10.25,5.22,5.22,0,0,0,10.25-2,5.22,5.22,0,0,0-2-10.25Z"/><circle class="cls-2" cx="37.66" cy="24.07" r="3.48"/><path class="cls-1" d="M14.47,23.26a5.22,5.22,0,0,0-10.25,2,5.22,5.22,0,0,0,2,10.25,5.22,5.22,0,0,0,10.25-2,5.22,5.22,0,1,0-2-10.25Z"/><circle class="cls-2" cx="10.34" cy="29.38" r="3.48"/><polygon class="cls-1" points="42.59 58.55 18.69 63.2 10.96 41.66 41.69 35.69 42.59 58.55"/><path class="cls-3" d="M112.28,55.09a142.41,142.41,0,0,1-28.43-2.86A77.25,77.25,0,0,0,125.56,0L67.35,44.8c-3.26,2.51-4.11,1.65-7.2,1.65a18.66,18.66,0,0,0-12.91,5.19c-1.28,1.25-1.45,1.59-3.44,2.08l-4.06,1,7.74,1.69c6.18,1.36,7.58,2.37,11,6.78L102.23,120A64.34,64.34,0,0,0,86.88,73.34,41.66,41.66,0,0,0,100.42,71a20.23,20.23,0,0,1,8.94-1.5h23.2c.31-1.55-.28-2-2.57-2.33l-17.94-2.5c.8-.57,1.89-1.54,2.71-2.22a9.18,9.18,0,0,1,4.92-2.54,130.82,130.82,0,0,0,14-4.18c2-.68,1.65-1.4,2.06-2.61A133.82,133.82,0,0,1,112.28,55.09Z"/><path class="cls-2" d="M58.33,56.2a2.89,2.89,0,1,1,2.89-2.88A2.88,2.88,0,0,1,58.33,56.2Z"/><path class="cls-2" d="M86.47,69.82a38.33,38.33,0,0,1-26.3-10.4c6.18-1.89,14.11-2.14,24.53-1,9.57,1,17.35,2.58,26.3,2.6A38.34,38.34,0,0,1,86.47,69.82Z"/><path class="cls-3" d="M354,55.82c-2.73,10-11.32,17.06-18.52,17.06-7.69,0-9-5-9-8.2,7.46-1.42,18.85-4.55,18.85-13.37,0-4.05-2.52-7.85-9.41-7.85-9.83,0-16,8.73-17.63,16-3.43,7.67-10.54,13.42-17.19,13.42-7.68,0-9-5-9-8.2C299.59,63.26,311,60.13,311,51.31c0-4.05-2.52-7.85-9.41-7.85-9.82,0-16,8.72-17.62,16v0c-3.43,7.7-10.56,13.47-17.22,13.47-7.69,0-9-5-9-8.2,7.45-1.42,18.85-4.55,18.85-13.37,0-4.05-2.52-7.85-9.41-7.85-11,0-17.4,10.9-18,18.47a29.19,29.19,0,0,1-4.22.36c-5.19,0-4.56-3.95-3.75-8.14,1.17-6-2.06-10.69-8.35-10.69-7.2,0-12.51,7.11-15.47,14.15h0c1.67-8.6.23-13.87-10.12-13.87-4.73,0-10.13,1.48-15.95,3.77,0,0,2.11-10.86,2.11-10.86,2.61-13.41,6.12-16.23,10.5-16.23,3.48,0,5.78,2.07,8.59,5.7l1.51-7.8a19.67,19.67,0,0,0-10.29-2.82c-10.34,0-17.24,7.52-20.11,22.28l-2.7,13.95c-9.43,3.75-21.41,7.63-40.26,8.49l-.87,4.49c18.45-.72,30.59-4.22,40.12-7.82l-5.15,26.47c-2.52,13-5.91,16.24-10.45,16.24-4.22,0-6.76-3.35-8.59-5.7-.25,1.31-1.51,7.8-1.51,7.8a20.08,20.08,0,0,0,10.51,2.82c9.53,0,16.85-6.91,19.84-22.28l5.74-29.55c5.78-2.38,11.82-4.29,14.84-4.29,4.87,0,5.76,1.66,4.5,8.25l-4.11,21h9.1l1.85-9.38c1.4-7.21,6.36-17.57,12.74-17.57,3.21,0,3.91,2.45,3.31,5.53-1.56,8,3.19,10.07,8.8,10.07a53.4,53.4,0,0,0,7.89-.48c.34,4.86,4.24,12.77,14.94,12.77,8,0,14.87-5.12,19.55-11.7.8,4.87,4.87,11.7,14.81,11.7,8,0,14.86-5.11,19.54-11.67.81,4.86,4.88,11.67,14.8,11.67,11.24,0,20.94-9.89,24.71-22Zm-18.43-8c1.51,0,3.11,1,3.11,3.76,0,5.18-6.74,7.84-12,9C326.67,56.16,331.28,47.79,335.53,47.79Zm-34.34,0c1.51,0,3.11,1,3.11,3.76,0,5.18-6.74,7.84-12,9C292.33,56.16,296.94,47.79,301.19,47.79Zm-34.37,0c1.52,0,3.12,1,3.12,3.76,0,5.18-6.75,7.84-12,9C258,56.16,262.57,47.79,266.82,47.79Z"/><path class="cls-3" d="M390.41,49.48a63.33,63.33,0,0,1-10.27,6l-3.38-4.52A42.43,42.43,0,0,0,398.81,32h6.48c5.31,7.44,13,13.3,23.07,17.36l-3.5,4.8A62.65,62.65,0,0,1,415,48.69v4.06H390.41Zm9.36,13.59C398,67,396.21,70.51,394.3,73.84c7.38-.51,13.19-1,18.72-1.63l-.39-.46c-2.49-2.53-3.22-3.32-5.3-5.24l4.73-2.65a105.2,105.2,0,0,1,13.37,14l-5.08,3.55-.11-.16c-2.09-2.88-2.48-3.39-3.72-5-10.83,1.58-23.35,3-34.63,3.84l-1.75-5.53c2.65-.11,6-.28,7.95-.45a79.37,79.37,0,0,0,5.3-11.11H379.75v-5h45.68v5Zm14-15.17a52.58,52.58,0,0,1-11.73-11,42,42,0,0,1-9.64,11Z"/><path class="cls-3" d="M445.4,61.43a59.91,59.91,0,0,1-6.94,6.6L435.75,63A55.41,55.41,0,0,0,451,46.21H437.5V41.13h7.67V31.21h5.41v9.92h5.31l2.31,2.31a65.78,65.78,0,0,1-7.11,11.28A74.68,74.68,0,0,1,461,61.77l-3.5,4.74a66.44,66.44,0,0,0-6.71-6.26V81.62H445.4Zm10.43,12.86h12.52V51.9h-10.1V46.66h10.1V31.88h5.7V46.66h11.22V51.9H474.05V74.29h13.19v5.36H455.83Z"/><path class="cls-3" d="M495.87,40.23h20.36V44.8H495.87Zm47,18.16a41.42,41.42,0,0,1-8.29,12.41,47,47,0,0,0,12.12,5.58l-3.15,5a49.67,49.67,0,0,1-12.58-7A40.87,40.87,0,0,1,518,82l-3.27-4.57V79h-12.3v2.59h-5v-19h17.26V77.22a30.4,30.4,0,0,0,12.46-6.14,33.5,33.5,0,0,1-7.16-10.27h-2.82V56h22.9ZM498.47,32.73h15.39v4.4H498.47Zm0,15.17h15.39v4.23H498.47Zm0,7.33h15.39v4.23H498.47Zm11.45,19.4V66.9h-7.45v7.73ZM526.1,38.09c0,9.47-1.58,13.14-7.05,16.69l-3.55-3.84c4.06-2,5.41-5,5.41-11.61V33.24H537V46.83c0,1.24.28,1.46,1.69,1.46,2.26,0,2.26-.11,2.48-6l4.74,1.52c-.34,8.74-.9,9.42-7.78,9.42-4.74,0-6.32-.91-6.32-3.73V38.09Zm-.79,22.72a25.18,25.18,0,0,0,5.53,7,22.94,22.94,0,0,0,5.19-7Z"/><path class="cls-3" d="M555.55,72.32H583a153,153,0,0,0,6.72-24.59l6.2,1.58a186.61,186.61,0,0,1-6.88,23h16v5.36h-49.4Zm2.14-30.91h19.4V32.28h6v9.13h19.74v5.25H557.69Zm11.79,7.17a144.09,144.09,0,0,1,5.58,20.52L569,70.85a132.16,132.16,0,0,0-5.36-20.64Z"/></g></g></svg>