<svg xmlns="http://www.w3.org/2000/svg" viewBox="0 0 621.38 240"><defs><style>.cls-1{fill:#fff;}</style></defs><g id="レイヤー_2" data-name="レイヤー 2"><g id="White"><path class="cls-1" d="M553,129.13c2.3,11.34,12.62,18.83,25.36,18.83,22,0,38-21.28,43-38.72l-6.47-1.37c-4.76,16.86-18.91,29.93-32,29.93s-15.4-8.59-15.4-14c17.94-3.58,32.63-9.37,32.63-23.81,0-6.56-4.49-13.11-16.41-13.11-16.17,0-27.8,14.44-30.75,28.25-6.15,14.67-19.82,26.32-32.18,26.32-14.91,0-16.48-10.35-16.48-15,15.63-2.82,35-9.2,35-25,0-8.42-5.71-14.62-17.62-14.62-18.62,0-30.61,17-33.25,31.91-6.86,15.39-21.12,26.93-34.43,26.93-15.38,0-17.93-10-17.93-16.4,14.92-2.83,37.7-9.09,37.7-26.74,0-8.1-5-15.7-18.82-15.7-22,0-34.79,21.81-36,37a58.27,58.27,0,0,1-8.45.72c-10.37,0-9.11-7.91-7.48-16.28,2.33-12-4.14-21.39-16.71-21.39-14.4,0-25,14.23-30.94,28.3,3.34-17.2.46-27.75-20.24-27.75-9.47,0-20.26,3-31.9,7.53,0,0,4.21-21.71,4.21-21.71,5.22-26.82,12.25-32.47,21-32.47,6.94,0,11.56,4.15,17.17,11.41l3-15.6A39.49,39.49,0,0,0,328,31c-20.69,0-34.48,15-40.22,44.58l-5.41,27.9c-18.86,7.48-42.81,15.25-80.51,17l-1.74,9C237,128,261.28,121,280.33,113.75L270,166.7c-5.05,25.94-11.84,32.49-20.92,32.49-8.44,0-13.51-6.72-17.17-11.41l-3,15.6A40.06,40.06,0,0,0,250,209c19.05,0,33.7-13.83,39.67-44.57l11.49-59.09c11.55-4.76,23.63-8.58,29.67-8.58,9.74,0,11.53,3.3,9,16.5L330,163.19l18.46-1.26,4.93-25.35c2.8-14.41,12.72-35.13,25.47-35.13,6.43,0,7.82,4.9,6.62,11.07-3.12,16,6.39,20.14,17.6,20.14a105.49,105.49,0,0,0,15.78-1c.68,9.71,8.48,25.54,29.88,25.54,16.57,0,30.7-10.9,40.07-24.68,2,9,10.29,19.84,27.1,19.84C531.16,152.39,544.31,141.8,553,129.13Zm30-34.51c2.8,0,5.28,2,5.28,6.22,0,9.17-11.5,13.6-20.48,15.61C567.82,109.44,575.36,94.62,583,94.62Zm-62.1.6c3,0,5.64,2,5.64,6.75,0,9.57-12.3,14.45-21.91,16.6C504.65,111,513,95.22,520.92,95.22Zm-66.78.35c3,0,6.23,2,6.23,7.52,0,10.37-13.49,15.69-24,18C436.41,112.31,445.63,95.57,454.14,95.57Z"/><path class="cls-1" d="M145.08,110.17a283.82,283.82,0,0,1-56.84-5.72A154.49,154.49,0,0,0,171.66,0L55.23,89.61c-6.51,5-8.23,3.29-14.41,3.29A37.27,37.27,0,0,0,15,103.29c-2.58,2.49-2.91,3.18-6.88,4.14l-8.14,2,15.49,3.4c12.35,2.71,15.16,4.73,22,13.55L125,240c2.25-33.45-7.83-66.71-30.69-93.32A83.43,83.43,0,0,0,121.37,142c7.12-2.45,8.9-3,17.87-3h46.4c.62-3.11-.55-4-5.12-4.67l-35.89-5c1.59-1.13,3.77-3.09,5.42-4.44,3.56-2.93,4.54-3.82,9.83-5.07a261.36,261.36,0,0,0,28-8.37c3.9-1.37,3.29-2.81,4.1-5.22C174.18,109,162.62,110.17,145.08,110.17ZM37.19,112.41A5.77,5.77,0,1,1,43,106.64,5.77,5.77,0,0,1,37.19,112.41Zm56.29,27.22a76.66,76.66,0,0,1-52.61-20.79c12.35-3.78,28.22-4.27,49.05-2.07,19.15,2,34.71,5.16,52.61,5.2A76.64,76.64,0,0,1,93.48,139.63Z"/></g></g></svg>